<?xml version="1.0" standalone="no"?>
<!DOCTYPE svg PUBLIC "-//W3C//DTD SVG 20010904//EN"
 "http://www.w3.org/TR/2001/REC-SVG-20010904/DTD/svg10.dtd">
<svg version="1.0" xmlns="http://www.w3.org/2000/svg"
 width="821.000000pt" height="821.000000pt" viewBox="0 0 821.000000 821.000000"
 preserveAspectRatio="xMidYMid meet">
<metadata>
Created by potrace 1.14, written by Peter Selinger 2001-2017
</metadata>
<g transform="translate(0.000000,821.000000) scale(0.100000,-0.100000)"
fill="#000000" stroke="none">
<path d="M3948 6827 c-676 -397 -1228 -724 -1228 -727 1 -7 1339 -792 1359
-797 17 -4 1115 637 1113 650 -1 4 -2 365 -2 802 0 437 -3 795 -7 794 -5 0
-560 -325 -1235 -722z"/>
<path d="M500 5517 l0 -583 1225 -719 1224 -720 1 -683 c0 -376 -3 -681 -7
-679 -75 43 -2362 1388 -2395 1408 l-48 29 0 -583 1 -582 1788 -1050 c984
-577 1793 -1050 1798 -1050 5 0 813 473 1796 1050 l1787 1050 0 583 0 584 -32
-20 c-18 -11 -559 -329 -1203 -708 -643 -378 -1180 -694 -1193 -702 l-22 -14
2 682 3 682 660 389 c363 214 913 538 1223 720 l562 331 0 585 c0 321 -3 582
-7 580 -71 -41 -3501 -2057 -3534 -2077 l-46 -28 -154 91 c-85 50 -192 113
-239 140 -47 27 -121 71 -165 97 -567 333 -1134 666 -1230 723 -66 38 -140 82
-165 97 -25 16 -380 225 -790 465 -410 241 -766 450 -792 466 l-48 29 0 -583z"/>
</g>
</svg>
